<?xml version="1.0" encoding="UTF-8"?>
<svg version="1.1" xmlns="http://www.w3.org/2000/svg" width="2000" height="1500">
<path d="M0 0 C660 0 1320 0 2000 0 C2000 495 2000 990 2000 1500 C1340 1500 680 1500 0 1500 C0 1005 0 510 0 0 Z " fill="#FEFEFE" transform="translate(0,0)"/>
<path d="M0 0 C0.74463316 -0.00581376 1.48926632 -0.01162753 2.25646412 -0.01761746 C4.75376923 -0.03222539 7.25009267 -0.01832909 9.74739075 -0.00457001 C11.5549606 -0.00917862 13.3625267 -0.01553127 15.17008495 -0.02347898 C20.1389363 -0.04020089 25.10748096 -0.0319129 30.07633352 -0.01953411 C35.4342874 -0.01049767 40.7921879 -0.02444636 46.15013123 -0.0354538 C56.64704143 -0.05325862 67.14383736 -0.04939027 77.64075208 -0.03780323 C86.17031624 -0.02877691 94.69984833 -0.02754144 103.22941589 -0.0318985 C104.44247884 -0.03251143 105.65554179 -0.03312436 106.90536422 -0.03375587 C109.36952663 -0.03503474 111.83368904 -0.0363316 114.29785144 -0.03764623 C137.41499583 -0.04905779 160.53207682 -0.03592929 183.64921081 -0.01444477 C203.49324851 0.00342672 223.33719262 0.00032277 243.18122864 -0.01811981 C266.21454186 -0.03951635 289.24779948 -0.04795909 312.28112125 -0.03567076 C314.73631858 -0.03439653 317.19151591 -0.03313905 319.64671326 -0.0318985 C320.85477935 -0.0312814 322.06284545 -0.03066429 323.30751961 -0.03002849 C331.8287805 -0.02657195 340.35000617 -0.03241051 348.8712616 -0.04181671 C359.25305405 -0.05302455 369.6347255 -0.0500222 380.01650405 -0.02869374 C385.31545406 -0.018167 390.61420218 -0.01408919 395.91315079 -0.02729034 C400.76147502 -0.03918637 405.60940971 -0.03269775 410.45769846 -0.01138014 C412.21400333 -0.00690223 413.97034093 -0.00920689 415.72662485 -0.01888329 C418.11026375 -0.03101141 420.49256077 -0.01860984 422.87612915 0 C423.56135529 -0.00936466 424.24658142 -0.01872933 424.95257199 -0.02837777 C429.87105741 0.04860781 432.63143538 1.46507922 436.43806458 4.50336456 C440.19790056 8.77128649 441.56218398 11.05872404 441.56949234 16.6990242 C441.57333349 17.8070259 441.57717463 18.91502759 441.58113217 20.0566051 C441.58026569 21.28400826 441.57939921 22.51141141 441.57850647 23.77600861 C441.58296315 25.72007626 441.58296315 25.72007626 441.58750987 27.70341802 C441.59559869 31.31302005 441.59737049 34.92260223 441.59810734 38.53221226 C441.59995465 42.42054086 441.6075004 46.30885908 441.61424255 50.1971817 C441.62784018 58.70545782 441.63385294 67.21372924 441.63825321 75.72201443 C441.64101346 81.032466 441.64525043 86.34291575 441.64975739 91.65336609 C441.66195237 106.34987906 441.67225094 121.04639056 441.67563248 135.74290848 C441.67585204 136.68402924 441.67607161 137.62515 441.67629783 138.59478958 C441.67651611 139.53819408 441.67673438 140.48159859 441.67695928 141.45359111 C441.67740275 143.36536455 441.67784931 145.277138 441.67829895 147.18891144 C441.67852038 148.13722207 441.67874181 149.0855327 441.67896995 150.06258002 C441.68291813 165.42935477 441.70037172 180.79608211 441.72365847 196.16283855 C441.74736124 211.93112577 441.75983385 227.69938919 441.76100039 243.46769452 C441.76191781 252.32442636 441.76768671 261.18109643 441.78582001 270.03781128 C441.80120657 277.579689 441.80635005 285.12148588 441.7980819 292.6633763 C441.79417013 296.51220087 441.79513051 300.36086258 441.80913925 304.20966721 C441.82418255 308.38082496 441.81602723 312.55161434 441.80555725 316.72278595 C441.81764186 318.55050635 441.81764186 318.55050635 441.8299706 320.4151504 C441.79113292 327.00670668 441.58917751 332.04862876 436.93806458 337.14789581 C431.93371222 341.04451393 428.42709393 341.65130338 422.26647663 341.64317226 C421.15815054 341.6475994 421.15815054 341.6475994 420.02743402 341.65211597 C417.53191997 341.66083252 415.03645213 341.66238993 412.54092407 341.66399384 C410.74149756 341.66872306 408.94207212 341.67387373 407.14264792 341.67941147 C402.18238556 341.69334121 397.22213054 341.70090783 392.26185358 341.70738447 C388.01118409 341.71374882 383.76052673 341.72381982 379.50986478 341.73394512 C365.50432029 341.7672918 351.49876843 341.78879385 337.49319723 341.80714497 C333.84757317 341.81193862 330.20194942 341.8169221 326.55632567 341.8219502 C303.92855427 341.85291808 281.30078032 341.87960979 258.67299366 341.89636898 C253.43021452 341.90031863 248.18743542 341.9043216 242.94465637 341.90839386 C241.6415527 341.90940222 240.33844904 341.91041058 238.99585738 341.9114495 C217.87848588 341.92846249 196.76123144 341.96957802 175.64391712 342.02041685 C153.97466606 342.07215636 132.30547526 342.10130634 110.63616294 342.10856587 C98.46496686 342.11323255 86.29396253 342.12803039 74.12282753 342.16831017 C63.75893978 342.20256691 53.39527837 342.21656707 43.03133724 342.20388602 C37.74217079 342.19804913 32.45348327 342.2019959 27.16438866 342.23205566 C22.32249892 342.25934961 17.48142995 342.25897119 12.63952252 342.23654521 C10.88778698 342.23331367 9.13599717 342.24024074 7.38435218 342.25834244 C-8.7617417 342.41508498 -8.7617417 342.41508498 -14.19936877 337.16251868 C-19.42011911 330.80537687 -18.99124639 324.7307567 -18.9563446 316.80112457 C-18.96243571 315.50715645 -18.96852681 314.21318833 -18.97480249 312.88000906 C-18.9911947 309.29464598 -18.98888562 305.7095029 -18.98342752 302.12411547 C-18.98075643 298.2548837 -18.99529061 294.38571045 -19.00752258 290.51650238 C-19.02857539 282.93864149 -19.03311752 275.36085712 -19.0313347 267.78297044 C-19.030027 261.62327521 -19.03383159 255.46360385 -19.04125977 249.30391312 C-19.04335896 247.52952524 -19.04545656 245.75513737 -19.04755259 243.98074949 C-19.04859611 243.09758229 -19.04963964 242.21441509 -19.05071479 241.30448525 C-19.06961653 224.6019801 -19.06856716 207.89951887 -19.06174546 191.19700746 C-19.05616996 175.9190892 -19.07699585 160.64133862 -19.11010593 145.36345954 C-19.14384368 129.67412434 -19.15901117 113.98486946 -19.1543889 98.2954973 C-19.15214431 89.48790987 -19.15738592 80.68047743 -19.18228149 71.87292099 C-19.20329571 64.37469481 -19.20688549 56.87670861 -19.1879819 49.37847258 C-19.17882472 45.55357577 -19.17767994 41.72912639 -19.19833755 37.90426445 C-19.22049553 33.75568506 -19.2038293 29.60815984 -19.18339539 25.45957184 C-19.19591323 24.25353668 -19.20843108 23.04750152 -19.22132826 21.80491984 C-19.14891822 14.95689562 -18.52717985 9.5503549 -13.56193542 4.50336456 C-9.07677919 0.88233294 -5.63734493 -0.07704295 0 0 Z " fill="#FEFEFE" transform="translate(663.5619354248047,591.4966354370117)"/>
<path d="M0 0 C0.74463316 -0.00581376 1.48926632 -0.01162753 2.25646412 -0.01761746 C4.75376923 -0.03222539 7.25009267 -0.01832909 9.74739075 -0.00457001 C11.5549606 -0.00917862 13.3625267 -0.01553127 15.17008495 -0.02347898 C20.1389363 -0.04020089 25.10748096 -0.0319129 30.07633352 -0.01953411 C35.4342874 -0.01049767 40.7921879 -0.02444636 46.15013123 -0.0354538 C56.64704143 -0.05325862 67.14383736 -0.04939027 77.64075208 -0.03780323 C86.17031624 -0.02877691 94.69984833 -0.02754144 103.22941589 -0.0318985 C104.44247884 -0.03251143 105.65554179 -0.03312436 106.90536422 -0.03375587 C109.36952663 -0.03503474 111.83368904 -0.0363316 114.29785144 -0.03764623 C137.41499583 -0.04905779 160.53207682 -0.03592929 183.64921081 -0.01444477 C203.49324851 0.00342672 223.33719262 0.00032277 243.18122864 -0.01811981 C266.21454186 -0.03951635 289.24779948 -0.04795909 312.28112125 -0.03567076 C314.73631858 -0.03439653 317.19151591 -0.03313905 319.64671326 -0.0318985 C320.85477935 -0.0312814 322.06284545 -0.03066429 323.30751961 -0.03002849 C331.8287805 -0.02657195 340.35000617 -0.03241051 348.8712616 -0.04181671 C359.25305405 -0.05302455 369.6347255 -0.0500222 380.01650405 -0.02869374 C385.31545406 -0.018167 390.61420218 -0.01408919 395.91315079 -0.02729034 C400.76147502 -0.03918637 405.60940971 -0.03269775 410.45769846 -0.01138014 C412.21400333 -0.00690223 413.97034093 -0.00920689 415.72662485 -0.01888329 C418.11026375 -0.03101141 420.49256077 -0.01860984 422.87612915 0 C423.56135529 -0.00936466 424.24658142 -0.01872933 424.95257199 -0.02837777 C429.87105741 0.04860781 432.63143538 1.46507922 436.43806458 4.50336456 C440.19790056 8.77128649 441.56218398 11.05872404 441.56949234 16.6990242 C441.57333349 17.8070259 441.57717463 18.91502759 441.58113217 20.0566051 C441.58026569 21.28400826 441.57939921 22.51141141 441.57850647 23.77600861 C441.58296315 25.72007626 441.58296315 25.72007626 441.58750987 27.70341802 C441.59559869 31.31302005 441.59737049 34.92260223 441.59810734 38.53221226 C441.59995465 42.42054086 441.6075004 46.30885908 441.61424255 50.1971817 C441.62784018 58.70545782 441.63385294 67.21372924 441.63825321 75.72201443 C441.64101346 81.032466 441.64525043 86.34291575 441.64975739 91.65336609 C441.66195237 106.34987906 441.67225094 121.04639056 441.67563248 135.74290848 C441.67585204 136.68402924 441.67607161 137.62515 441.67629783 138.59478958 C441.67651611 139.53819408 441.67673438 140.48159859 441.67695928 141.45359111 C441.67740275 143.36536455 441.67784931 145.277138 441.67829895 147.18891144 C441.67852038 148.13722207 441.67874181 149.0855327 441.67896995 150.06258002 C441.68291813 165.42935477 441.70037172 180.79608211 441.72365847 196.16283855 C441.74736124 211.93112577 441.75983385 227.69938919 441.76100039 243.46769452 C441.76191781 252.32442636 441.76768671 261.18109643 441.78582001 270.03781128 C441.80120657 277.579689 441.80635005 285.12148588 441.7980819 292.6633763 C441.79417013 296.51220087 441.79513051 300.36086258 441.80913925 304.20966721 C441.82418255 308.38082496 441.81602723 312.55161434 441.80555725 316.72278595 C441.81764186 318.55050635 441.81764186 318.55050635 441.8299706 320.4151504 C441.79113292 327.00670668 441.58917751 332.04862876 436.93806458 337.14789581 C431.93371222 341.04451393 428.42709393 341.65130338 422.26647663 341.64317226 C421.15815054 341.6475994 421.15815054 341.6475994 420.02743402 341.65211597 C417.53191997 341.66083252 415.03645213 341.66238993 412.54092407 341.66399384 C410.74149756 341.66872306 408.94207212 341.67387373 407.14264792 341.67941147 C402.18238556 341.69334121 397.22213054 341.70090783 392.26185358 341.70738447 C388.01118409 341.71374882 383.76052673 341.72381982 379.50986478 341.73394512 C365.50432029 341.7672918 351.49876843 341.78879385 337.49319723 341.80714497 C333.84757317 341.81193862 330.20194942 341.8169221 326.55632567 341.8219502 C303.92855427 341.85291808 281.30078032 341.87960979 258.67299366 341.89636898 C253.43021452 341.90031863 248.18743542 341.9043216 242.94465637 341.90839386 C241.6415527 341.90940222 240.33844904 341.91041058 238.99585738 341.9114495 C217.87848588 341.92846249 196.76123144 341.96957802 175.64391712 342.02041685 C153.97466606 342.07215636 132.30547526 342.10130634 110.63616294 342.10856587 C98.46496686 342.11323255 86.29396253 342.12803039 74.12282753 342.16831017 C63.75893978 342.20256691 53.39527837 342.21656707 43.03133724 342.20388602 C37.74217079 342.19804913 32.45348327 342.2019959 27.16438866 342.23205566 C22.32249892 342.25934961 17.48142995 342.25897119 12.63952252 342.23654521 C10.88778698 342.23331367 9.13599717 342.24024074 7.38435218 342.25834244 C-8.7617417 342.41508498 -8.7617417 342.41508498 -14.19936877 337.16251868 C-19.42011911 330.80537687 -18.99124639 324.7307567 -18.9563446 316.80112457 C-18.96243571 315.50715645 -18.96852681 314.21318833 -18.97480249 312.88000906 C-18.9911947 309.29464598 -18.98888562 305.7095029 -18.98342752 302.12411547 C-18.98075643 298.2548837 -18.99529061 294.38571045 -19.00752258 290.51650238 C-19.02857539 282.93864149 -19.03311752 275.36085712 -19.0313347 267.78297044 C-19.030027 261.62327521 -19.03383159 255.46360385 -19.04125977 249.30391312 C-19.04335896 247.52952524 -19.04545656 245.75513737 -19.04755259 243.98074949 C-19.04859611 243.09758229 -19.04963964 242.21441509 -19.05071479 241.30448525 C-19.06961653 224.6019801 -19.06856716 207.89951887 -19.06174546 191.19700746 C-19.05616996 175.9190892 -19.07699585 160.64133862 -19.11010593 145.36345954 C-19.14384368 129.67412434 -19.15901117 113.98486946 -19.1543889 98.2954973 C-19.15214431 89.48790987 -19.15738592 80.68047743 -19.18228149 71.87292099 C-19.20329571 64.37469481 -19.20688549 56.87670861 -19.1879819 49.37847258 C-19.17882472 45.55357577 -19.17767994 41.72912639 -19.19833755 37.90426445 C-19.22049553 33.75568506 -19.2038293 29.60815984 -19.18339539 25.45957184 C-19.19591323 24.25353668 -19.20843108 23.04750152 -19.22132826 21.80491984 C-19.14891822 14.95689562 -18.52717985 9.5503549 -13.56193542 4.50336456 C-9.07677919 0.88233294 -5.63734493 -0.07704295 0 0 Z M-11.56193542 72.50336456 C-11.56193542 154.01336456 -11.56193542 235.52336456 -11.56193542 319.50336456 C67.68318123 319.53248492 67.68318123 319.53248492 146.92829895 319.55219269 C156.91812739 319.55402609 166.90795583 319.55590038 176.89778424 319.55789056 C178.25287994 319.5581604 179.60797564 319.55842877 180.96307134 319.55869565 C202.58513187 319.56296628 224.20718979 319.57047288 245.82924874 319.57966178 C268.67125822 319.58935156 291.51326655 319.59535818 314.35527807 319.59745306 C328.04709355 319.59882861 341.73890156 319.60318096 355.43071473 319.61128103 C364.80590736 319.61654654 374.18109609 319.6181693 383.55629008 319.61686594 C388.97400698 319.61622225 394.39171076 319.6172435 399.80942535 319.62257004 C404.76059954 319.62740265 409.7117517 319.62770413 414.66292686 319.62426346 C416.46239484 319.62383763 418.26186414 319.62513452 420.06132948 319.62824775 C422.49080382 319.63220947 424.9201966 319.63012938 427.34966946 319.62641239 C428.06258051 319.62903941 428.77549156 319.63166642 429.51000598 319.63437304 C432.7539948 319.89946164 432.7539948 319.89946164 435.43806458 318.50336456 C435.53614055 315.34310159 435.56796903 312.20466008 435.55831909 309.04399872 C435.55917511 308.04102753 435.56003113 307.03805634 435.56091309 306.00469208 C435.56257904 302.60571308 435.55702728 299.20678247 435.55158997 295.80780792 C435.55128389 293.34465823 435.55141668 290.88150845 435.55195522 288.4183588 C435.5521588 282.46975291 435.54785862 276.52116599 435.54145389 270.57256484 C435.53427052 263.69569632 435.53346006 256.81883539 435.53266907 249.9419632 C435.52741285 231.77492793 435.51345183 213.60789602 435.50056458 195.44086456 C435.47993958 154.87148956 435.45931458 114.30211456 435.43806458 72.50336456 C287.92806458 72.50336456 140.41806458 72.50336456 -11.56193542 72.50336456 Z " fill="#FDFDFD" transform="translate(663.5619354248047,591.4966354370117)"/>
<path d="M0 0 C95.04 0 190.08 0 288 0 C288.6355373 3.81322377 289.13739472 7.11152389 289.28125 10.8984375 C289.31863281 11.79046875 289.35601563 12.6825 289.39453125 13.6015625 C289.42933594 14.51679687 289.46414063 15.43203125 289.5 16.375 C289.76783972 23.76245805 289.76783972 23.76245805 290.50390625 31.11328125 C291.04530687 35.35496326 291.26114066 39.54397581 291.4375 43.8125 C291.73864115 50.23851397 292.21428048 56.60798516 292.9375 63 C293.83661402 71.00920178 294.51941589 79.02583746 295.125 87.0625 C295.25636353 88.75729492 295.25636353 88.75729492 295.39038086 90.48632812 C295.86944373 97.00505679 296.11604005 103.46399788 296 110 C294.02 110.33 292.04 110.66 290 111 C284.37923041 97.27559529 278.79551675 83.53865274 273.32421875 69.75390625 C272.85952179 68.58467621 272.39482483 67.41544617 271.91604614 66.21078491 C270.02362674 61.44859128 268.13172817 56.68621573 266.24780273 51.9206543 C264.8406164 48.36312854 263.42671461 44.80833175 262.01171875 41.25390625 C261.388097 39.6692733 261.388097 39.6692733 260.75187683 38.05262756 C254.82634466 21.91112591 254.82634466 21.91112591 243 10.25 C238.30138823 8.2922451 234.07359054 7.87313451 229.00785828 7.84178162 C227.80866351 7.83200759 226.60946875 7.82223356 225.37393475 7.81216335 C224.06161782 7.8063931 222.7493009 7.80062284 221.3972168 7.79467773 C219.97485731 7.78495681 218.55250067 7.77481104 217.13014698 7.76427555 C213.32651094 7.73727187 209.5228634 7.71607114 205.71918488 7.69608307 C202.14792976 7.67643408 198.57671869 7.65153751 195.00549316 7.6270752 C184.56619531 7.55861846 174.12684367 7.49857149 163.6875 7.4375 C140.360625 7.293125 117.03375 7.14875 93 7 C93 66.4 93 125.8 93 187 C108.283125 186.896875 123.56625 186.79375 139.3125 186.6875 C144.11981689 186.66260498 148.92713379 186.63770996 153.88012695 186.61206055 C158.22825088 186.57545198 158.22825088 186.57545198 162.57633972 186.5349884 C164.49748583 186.51894774 166.41868492 186.50858622 168.33988953 186.50288391 C185.42907411 187.00183452 185.42907411 187.00183452 200.9375 180.9375 C206.23143993 173.39764616 207.89048418 164.67762653 209.4375 155.75 C209.85502248 153.46168091 210.27565562 151.17392744 210.69921875 148.88671875 C211.01705322 147.1704126 211.01705322 147.1704126 211.34130859 145.41943359 C212.36451164 140.10772794 213.539985 134.83436061 214.75 129.5625 C214.96068115 128.63985352 215.1713623 127.71720703 215.38842773 126.76660156 C216.15528366 123.45287921 216.92362823 120.22911532 218 117 C220.31 117 222.62 117 225 117 C225 166.17 225 215.34 225 266 C222.69 266 220.38 266 218 266 C215.84046455 257.75309871 213.82810744 249.5063131 212.21875 241.1328125 C212.00496704 240.02374542 212.00496704 240.02374542 211.78686523 238.89227295 C211.20830954 235.87253636 210.63526406 232.85187043 210.07275391 229.82910156 C207.59293091 213.07017009 207.59293091 213.07017009 198 200 C164.77199976 188.92399992 128.02348752 196.364828 93 196 C93 262.33 93 328.66 93 397 C116.05875 396.896875 139.1175 396.79375 162.875 396.6875 C170.14515137 396.66260498 177.41530273 396.63770996 184.90576172 396.61206055 C191.44533959 396.57547909 191.44533959 396.57547909 197.9848938 396.5349884 C200.88863737 396.51711386 203.79228102 396.50745919 206.69607544 396.50288391 C210.40940474 396.49675921 214.12240503 396.47630736 217.83561158 396.44583857 C219.82876815 396.43297098 221.82200202 396.43448223 223.8151989 396.43669415 C232.03422341 396.35071472 240.11548765 396.02128739 246.8125 390.8125 C252.67170782 383.2792328 256.2692315 375.11028363 259.875 366.3125 C260.4382542 364.95309438 261.00198714 363.59388703 261.56616211 362.23486328 C266.59776025 350.08576048 271.52549996 337.89351751 276.45117188 325.70117188 C280.55113052 315.55434388 284.68886699 305.42408955 288.875 295.3125 C289.26100876 294.3790274 289.26100876 294.3790274 289.65481567 293.42669678 C293.81617272 283.36765455 293.81617272 283.36765455 295 281 C297.31 281 299.62 281 302 281 C300.13184287 298.26707621 298.12494981 315.51544721 296.05688477 332.75952148 C294.81172506 343.14870742 293.58488872 353.539781 292.37890625 363.93359375 C292.10528184 366.28516291 291.83160052 368.63672545 291.55786133 370.98828125 C291.1547835 374.4509665 290.75273336 377.91375375 290.35409546 381.37695312 C289.98368195 384.59408522 289.60940896 387.8107475 289.234375 391.02734375 C289.06906029 392.47747108 289.06906029 392.47747108 288.90040588 393.95689392 C288.79630905 394.84373367 288.69221222 395.73057343 288.58496094 396.64428711 C288.49567322 397.41695419 288.4063855 398.18962128 288.31439209 398.98570251 C288 401 288 401 287 404 C192.29 404 97.58 404 0 404 C0 402.35 0 400.7 0 399 C5.71042573 398.4259421 11.42127963 397.85642311 17.13256836 397.29101562 C19.07344639 397.09823781 21.01420398 396.90424317 22.95483398 396.70898438 C25.75212953 396.4277482 28.54983602 396.15096157 31.34765625 395.875 C32.2083522 395.78750488 33.06904816 395.70000977 33.95582581 395.60986328 C34.77614792 395.52978027 35.59647003 395.44969727 36.44165039 395.3671875 C37.15446671 395.29612793 37.86728302 395.22506836 38.60169983 395.15185547 C41.72861358 394.95386568 44.86682436 395 48 395 C48 267.62 48 140.24 48 9 C44.04 9 40.08 9 36 9 C32.96160644 8.76094665 29.97356438 8.48925387 26.953125 8.125 C26.17104675 8.03621582 25.38896851 7.94743164 24.58319092 7.85595703 C22.13801937 7.57693618 19.6940485 7.28867477 17.25 7 C15.57038369 6.8066722 13.89069646 6.61395946 12.2109375 6.421875 C8.1397739 5.95499326 4.06965648 5.47983407 0 5 C0 3.35 0 1.7 0 0 Z " fill="#372C6F" transform="translate(1134,545)"/>
<path d="M0 0 C84.81 0 169.62 0 257 0 C256.14461253 5.98771229 255.87063431 7.87999794 252.89453125 12.5625 C252.24782471 13.59479736 251.60111816 14.62709473 250.93481445 15.69067383 C249.8842688 17.32879028 249.8842688 17.32879028 248.8125 19 C248.08355153 20.15630904 247.35595018 21.31346833 246.62963867 22.47143555 C245.14417201 24.83839737 243.65376973 27.20213672 242.16015625 29.56396484 C238.97940721 34.60726541 235.89815198 39.7106724 232.8125 44.8125 C227.92558429 52.86020323 222.99471226 60.87932966 218.03222656 68.88061523 C208.56134372 84.15177236 199.14252086 99.45485474 189.8125 114.8125 C184.92382433 122.85914618 179.99472322 130.87931199 175.03222656 138.88061523 C164.97440202 155.09817609 154.98526277 171.35729968 145.07836914 187.66748047 C140.72239189 194.8317454 136.3162446 201.9637872 131.89379883 209.0871582 C127.89408187 215.53696673 123.93920333 222.01308295 120 228.5 C115.0494838 236.65070538 110.05930788 244.77526444 105.03295898 252.87939453 C94.97499417 269.09742777 84.9855098 285.35689299 75.07836914 301.66748047 C70.72239189 308.8317454 66.3162446 315.9637872 61.89379883 323.0871582 C57.89408123 329.53696777 53.93930329 336.01314285 50 342.5 C42.28218371 355.20290647 34.53078185 367.88681751 26.5546875 380.4296875 C25.99990723 381.30270508 25.44512695 382.17572266 24.87353516 383.07519531 C23.81643907 384.73539253 22.75636669 386.3936996 21.69287109 388.04980469 C21.22187988 388.78875977 20.75088867 389.52771484 20.265625 390.2890625 C19.85086914 390.93568848 19.43611328 391.58231445 19.00878906 392.24853516 C17.84347726 394.13712727 17.84347726 394.13712727 17 397 C39.10575388 396.96278542 61.21134317 396.90285416 83.31696033 396.81609726 C93.58167078 396.77633779 103.84630491 396.74392959 114.11108398 396.72900391 C123.06094069 396.71597137 132.01062924 396.6889658 140.96039122 396.64538693 C145.69646585 396.62280818 150.43233335 396.60708717 155.16846657 396.60811615 C159.63289247 396.60886488 164.09686114 396.59082887 168.56116867 396.55883217 C170.19327265 396.55036406 171.82542811 396.5485621 173.45754433 396.55419731 C189.00521525 396.66165783 189.00521525 396.66165783 202.1875 389.25 C210.22481339 378.26113085 214.9082172 364.67333887 220.07177734 352.20751953 C226.94628477 335.62438278 234.06172153 319.14403851 241.14658642 302.65004539 C241.93507447 300.8141826 242.72331495 298.97821348 243.5115509 297.14224243 C244.48917265 294.86541742 245.46740393 292.58885399 246.44633484 290.31259155 C246.88516495 289.29081818 247.32399506 288.2690448 247.77612305 287.21630859 C248.15882858 286.32608002 248.54153412 285.43585144 248.93583679 284.51864624 C249.98962097 282.02456494 251.00303294 279.51726807 252 277 C254.97 277.33 257.94 277.66 261 278 C254 320 247 362 240 404 C149.25 404 58.5 404 -35 404 C-35 398.12989757 -34.90476235 397.10265823 -31.9921875 392.53515625 C-31.0172937 390.98187622 -31.0172937 390.98187622 -30.02270508 389.3972168 C-29.3139624 388.29676025 -28.60521973 387.19630371 -27.875 386.0625 C-27.14135656 384.9017226 -26.40919827 383.74000532 -25.6784668 382.57739258 C-24.18266843 380.19914631 -22.68131328 377.82455313 -21.17626953 375.45214844 C-17.98469618 370.40679748 -14.90082049 365.29645944 -11.8125 360.1875 C-6.88356127 352.06830741 -1.90362289 343.98232128 3.10620117 335.9128418 C7.10591813 329.46303327 11.06079667 322.98691705 15 316.5 C19.9505162 308.34929462 24.94069212 300.22473556 29.96704102 292.12060547 C40.02500583 275.90257223 50.0144902 259.64310701 59.92163086 243.33251953 C64.27760811 236.1682546 68.6837554 229.0362128 73.10620117 221.9128418 C77.10591813 215.46303327 81.06079667 208.98691705 85 202.5 C89.9505162 194.34929462 94.94069212 186.22473556 99.96704102 178.12060547 C110.02500583 161.90257223 120.0144902 145.64310701 129.92163086 129.33251953 C134.27760811 122.1682546 138.6837554 115.0362128 143.10620117 107.9128418 C147.10591768 101.46303399 151.06086767 94.98695965 155 88.5 C159.99275807 80.27793041 165.03172903 72.08636347 170.10546875 63.9140625 C174.6959602 56.51147823 179.226612 49.07337119 183.74316406 41.62548828 C186.7027285 36.7512533 189.68242167 31.89131418 192.703125 27.0546875 C193.29867187 26.10013672 193.89421875 25.14558594 194.5078125 24.16210938 C195.63971722 22.35131561 196.77495022 20.54259654 197.9140625 18.73632812 C198.42195312 17.92357422 198.92984375 17.11082031 199.453125 16.2734375 C199.89817383 15.56622559 200.34322266 14.85901367 200.80175781 14.13037109 C202.10130427 11.81988977 203.03594878 9.46648151 204 7 C184.4846568 7.06061092 164.96945041 7.13816473 145.45425606 7.23571491 C136.39236746 7.28062028 127.33051769 7.32004701 118.26855469 7.34643555 C110.3672497 7.36945829 102.46606817 7.4029039 94.56486118 7.44870156 C90.38385066 7.47257626 86.20296197 7.49134264 82.02188492 7.49761391 C78.08034583 7.50369092 74.13911823 7.52378435 70.19769478 7.55427551 C68.7570659 7.56301403 67.31639624 7.56678707 65.87574196 7.56500816 C54.96562158 7.55579625 45.03894892 7.93856972 36.8218689 15.83331299 C33.30715474 20.01324357 31.02520726 24.76225688 28.64453125 29.6484375 C27.7423234 31.44306033 26.84011525 33.237683 25.93789768 35.03230095 C24.96483921 36.97652891 24.00080845 38.92500117 23.03912354 40.87487793 C20.91688743 45.17597443 18.765261 49.46202636 16.61083984 53.74707031 C11.94876842 63.02929306 7.31658368 72.32629358 2.6875 81.625 C-0.08092778 87.18559133 -2.85076922 92.74547075 -5.62389183 98.30372238 C-6.72074221 100.50388114 -7.81517896 102.70522915 -8.90950012 104.90664673 C-9.57146814 106.23420901 -10.23354573 107.56171668 -10.89575195 108.88916016 C-11.47307571 110.04904449 -12.05039948 111.20892883 -12.6452179 112.40396118 C-14 115 -14 115 -15 116 C-17.67058851 116.14115161 -20.32432238 116.04247107 -23 116 C-22.80258703 107.49329569 -21.09648862 99.60488305 -19.14306641 91.36303711 C-17.27940542 83.42389348 -15.69975224 75.45039327 -14.1875 67.4375 C-11.08015028 51.05814994 -7.55886702 34.77581414 -3.97973633 18.49389648 C-2.6365395 12.33286384 -1.32123835 6.16577896 0 0 Z " fill="#372C6F" transform="translate(299,545)"/>
<path d="M0 0 C9.6160755 8.12343095 16.0671935 19.20239961 17.42960262 31.78339577 C18.18081943 41.81197341 18.25228941 51.7857227 18.23071289 61.83740234 C18.2304302 63.70151264 18.23059036 65.56562305 18.2311554 67.42973328 C18.23144016 72.44734919 18.22559559 77.46494079 18.21858144 82.4825511 C18.2122942 87.74224185 18.21173988 93.00193327 18.21055603 98.2616272 C18.20745846 108.2024283 18.19926645 118.1432183 18.18920654 128.08401453 C18.17799631 139.40939428 18.17252262 150.73477457 18.16751111 162.06015849 C18.1570824 185.33959097 18.13951367 208.61901361 18.1171875 231.8984375 C20.10779985 231.89050611 22.0984122 231.88257472 24.08902454 231.87464333 C28.53195821 231.92676731 32.91157536 232.65975897 37.3046875 233.2734375 C38.27599609 233.39976562 39.24730469 233.52609375 40.24804688 233.65625 C41.65860352 233.84960938 41.65860352 233.84960938 43.09765625 234.046875 C44.36452271 234.21968994 44.36452271 234.21968994 45.65698242 234.39599609 C48.31125035 234.93807046 50.63548185 235.82372454 53.1171875 236.8984375 C53.1171875 238.2184375 53.1171875 239.5384375 53.1171875 240.8984375 C17.4771875 240.8984375 -18.1628125 240.8984375 -54.8828125 240.8984375 C-54.8828125 239.2484375 -54.8828125 237.5984375 -54.8828125 235.8984375 C-50.38074894 235.32640881 -45.87838738 234.75680791 -41.37573242 234.18945312 C-39.84407251 233.99611005 -38.31249611 233.80210422 -36.78100586 233.60742188 C-34.5794808 233.3276819 -32.37766628 233.05032792 -30.17578125 232.7734375 C-29.14906563 232.64219482 -29.14906563 232.64219482 -28.10160828 232.50830078 C-25.33594642 232.16247073 -22.67374321 231.8984375 -19.8828125 231.8984375 C-19.92006708 208.18405579 -19.98005674 184.46982437 -20.06671524 160.75556946 C-20.10643377 149.743294 -20.13886267 138.73108925 -20.15380859 127.71875 C-20.16686245 118.11439106 -20.19392196 108.51018819 -20.23742557 98.90591717 C-20.25995664 93.82595501 -20.27572822 88.74618476 -20.27469635 83.66616821 C-20.27394477 78.87261 -20.29209327 74.07947465 -20.32398033 69.286026 C-20.33241312 67.53830396 -20.334275 65.79053412 -20.32861519 64.0428009 C-20.28781727 49.49252157 -21.20911501 33.63705418 -30.8828125 21.8984375 C-41.62651583 11.24918431 -55.05722638 9.59434475 -69.42163086 9.58374023 C-87.3091748 9.83297718 -101.78077377 18.12029816 -114.8828125 29.8984375 C-115.41583386 30.27175107 -115.94885523 30.64506464 -116.49802876 31.02969074 C-118.70191977 34.00381158 -118.30408809 37.25305934 -118.28153992 40.81401062 C-118.28818674 41.62920081 -118.29483357 42.44439101 -118.30168182 43.28428394 C-118.3203851 46.0251789 -118.31770164 48.76564015 -118.31518555 51.5065918 C-118.32419824 53.46760682 -118.33452423 55.42861618 -118.34606934 57.38961792 C-118.37372334 62.72192958 -118.38293524 68.0541346 -118.38892341 73.3865087 C-118.39828526 78.95594266 -118.4244868 84.52529627 -118.44892883 90.09468079 C-118.4926579 100.64498166 -118.52116548 111.195267 -118.54425222 121.74563104 C-118.57126959 133.75519171 -118.61518319 145.76467182 -118.66054094 157.77417505 C-118.75347897 182.48221889 -118.82511773 207.19028801 -118.8828125 231.8984375 C-117.85302277 231.96523209 -116.82323303 232.03202667 -115.76223755 232.10084534 C-114.39764123 232.19031565 -113.03304788 232.27983117 -111.66845703 232.36938477 C-110.99132156 232.4131852 -110.3141861 232.45698563 -109.61653137 232.50211334 C-104.96795103 232.80839459 -100.37492332 233.22201397 -95.7578125 233.8359375 C-94.55898437 233.98933594 -93.36015625 234.14273438 -92.125 234.30078125 C-89.13409411 234.85211691 -86.6462162 235.65229885 -83.8828125 236.8984375 C-83.8828125 238.2184375 -83.8828125 239.5384375 -83.8828125 240.8984375 C-119.8528125 240.8984375 -155.8228125 240.8984375 -192.8828125 240.8984375 C-192.8828125 239.2484375 -192.8828125 237.5984375 -192.8828125 235.8984375 C-188.72090181 235.32364286 -184.55830778 234.75416212 -180.39501953 234.18945312 C-178.98076075 233.99687871 -177.56669381 233.80288966 -176.15283203 233.60742188 C-174.11280128 233.32564173 -172.07211968 233.04906762 -170.03125 232.7734375 C-168.80583496 232.60585938 -167.58041992 232.43828125 -166.31787109 232.265625 C-162.8828125 231.8984375 -162.8828125 231.8984375 -156.8828125 231.8984375 C-157.2128125 165.2384375 -157.5428125 98.5784375 -157.8828125 29.8984375 C-168.4428125 25.9384375 -179.0028125 21.9784375 -189.8828125 17.8984375 C-190.5428125 17.5684375 -191.2028125 17.2384375 -191.8828125 16.8984375 C-191.74902344 14.55737305 -191.74902344 14.55737305 -190.8828125 11.8984375 C-188.38378906 10.47973633 -188.38378906 10.47973633 -185.0234375 9.35546875 C-183.77530273 8.9260498 -182.52716797 8.49663086 -181.24121094 8.05419922 C-179.87186337 7.6060828 -178.50239432 7.15833745 -177.1328125 6.7109375 C-175.73923972 6.23911369 -174.3463412 5.76529401 -172.95410156 5.28955078 C-170.06267536 4.30471229 -167.16776006 3.33133035 -164.26953125 2.36669922 C-159.99424247 0.94101035 -155.73365053 -0.52487119 -151.4765625 -2.00390625 C-150.81090271 -2.23504623 -150.14524292 -2.46618622 -149.45941162 -2.70433044 C-148.15306005 -3.15795326 -146.84672427 -3.61162152 -145.54040527 -4.06533813 C-128.12625875 -10.1015625 -128.12625875 -10.1015625 -120.8828125 -10.1015625 C-120.5528125 1.4484375 -120.2228125 12.9984375 -119.8828125 24.8984375 C-117.2428125 22.2584375 -114.6028125 19.6184375 -111.8828125 16.8984375 C-109.63278705 14.98400907 -107.40479004 13.13531828 -105.0703125 11.3359375 C-104.46703125 10.86833008 -103.86375 10.40072266 -103.2421875 9.91894531 C-97.98997094 5.8965025 -92.62249671 2.19875592 -86.8828125 -1.1015625 C-85.8515625 -1.69710937 -84.8203125 -2.29265625 -83.7578125 -2.90625 C-57.43305772 -17.10455524 -24.82988839 -18.10092135 0 0 Z " fill="#372C6F" transform="translate(1677.8828125,708.1015625)"/>
<path d="M0 0 C0.74463316 -0.00581376 1.48926632 -0.01162753 2.25646412 -0.01761746 C4.75376923 -0.03222539 7.25009267 -0.01832909 9.74739075 -0.00457001 C11.5549606 -0.00917862 13.3625267 -0.01553127 15.17008495 -0.02347898 C20.1389363 -0.04020089 25.10748096 -0.0319129 30.07633352 -0.01953411 C35.4342874 -0.01049767 40.7921879 -0.02444636 46.15013123 -0.0354538 C56.64704143 -0.05325862 67.14383736 -0.04939027 77.64075208 -0.03780323 C86.17031624 -0.02877691 94.69984833 -0.02754144 103.22941589 -0.0318985 C104.44247884 -0.03251143 105.65554179 -0.03312436 106.90536422 -0.03375587 C109.36952663 -0.03503474 111.83368904 -0.0363316 114.29785144 -0.03764623 C137.41499583 -0.04905779 160.53207682 -0.03592929 183.64921081 -0.01444477 C203.49324851 0.00342672 223.33719262 0.00032277 243.18122864 -0.01811981 C266.21454186 -0.03951635 289.24779948 -0.04795909 312.28112125 -0.03567076 C314.73631858 -0.03439653 317.19151591 -0.03313905 319.64671326 -0.0318985 C320.85477935 -0.0312814 322.06284545 -0.03066429 323.30751961 -0.03002849 C331.8287805 -0.02657195 340.35000617 -0.03241051 348.8712616 -0.04181671 C359.25305405 -0.05302455 369.6347255 -0.0500222 380.01650405 -0.02869374 C385.31545406 -0.018167 390.61420218 -0.01408919 395.91315079 -0.02729034 C400.76147502 -0.03918637 405.60940971 -0.03269775 410.45769846 -0.01138014 C412.21400333 -0.00690223 413.97034093 -0.00920689 415.72662485 -0.01888329 C418.11026375 -0.03101141 420.49256077 -0.01860984 422.87612915 0 C423.56135529 -0.00936466 424.24658142 -0.01872933 424.95257199 -0.02837777 C429.87105741 0.04860781 432.63143538 1.46507922 436.43806458 4.50336456 C440.19790056 8.77128649 441.56218398 11.05872404 441.56949234 16.6990242 C441.57333349 17.8070259 441.57717463 18.91502759 441.58113217 20.0566051 C441.58026569 21.28400826 441.57939921 22.51141141 441.57850647 23.77600861 C441.58296315 25.72007626 441.58296315 25.72007626 441.58750987 27.70341802 C441.59559869 31.31302005 441.59737049 34.92260223 441.59810734 38.53221226 C441.59995465 42.42054086 441.6075004 46.30885908 441.61424255 50.1971817 C441.62784018 58.70545782 441.63385294 67.21372924 441.63825321 75.72201443 C441.64101346 81.032466 441.64525043 86.34291575 441.64975739 91.65336609 C441.66195237 106.34987906 441.67225094 121.04639056 441.67563248 135.74290848 C441.67585204 136.68402924 441.67607161 137.62515 441.67629783 138.59478958 C441.67651611 139.53819408 441.67673438 140.48159859 441.67695928 141.45359111 C441.67740275 143.36536455 441.67784931 145.277138 441.67829895 147.18891144 C441.67852038 148.13722207 441.67874181 149.0855327 441.67896995 150.06258002 C441.68291813 165.42935477 441.70037172 180.79608211 441.72365847 196.16283855 C441.74736124 211.93112577 441.75983385 227.69938919 441.76100039 243.46769452 C441.76191781 252.32442636 441.76768671 261.18109643 441.78582001 270.03781128 C441.80120657 277.579689 441.80635005 285.12148588 441.7980819 292.6633763 C441.79417013 296.51220087 441.79513051 300.36086258 441.80913925 304.20966721 C441.82418255 308.38082496 441.81602723 312.55161434 441.80555725 316.72278595 C441.81764186 318.55050635 441.81764186 318.55050635 441.8299706 320.4151504 C441.79113292 327.00670668 441.58917751 332.04862876 436.93806458 337.14789581 C431.93371222 341.04451393 428.42709393 341.65130338 422.26647663 341.64317226 C421.15815054 341.6475994 421.15815054 341.6475994 420.02743402 341.65211597 C417.53191997 341.66083252 415.03645213 341.66238993 412.54092407 341.66399384 C410.74149756 341.66872306 408.94207212 341.67387373 407.14264792 341.67941147 C402.18238556 341.69334121 397.22213054 341.70090783 392.26185358 341.70738447 C388.01118409 341.71374882 383.76052673 341.72381982 379.50986478 341.73394512 C365.50432029 341.7672918 351.49876843 341.78879385 337.49319723 341.80714497 C333.84757317 341.81193862 330.20194942 341.8169221 326.55632567 341.8219502 C303.92855427 341.85291808 281.30078032 341.87960979 258.67299366 341.89636898 C253.43021452 341.90031863 248.18743542 341.9043216 242.94465637 341.90839386 C241.6415527 341.90940222 240.33844904 341.91041058 238.99585738 341.9114495 C217.87848588 341.92846249 196.76123144 341.96957802 175.64391712 342.02041685 C153.97466606 342.07215636 132.30547526 342.10130634 110.63616294 342.10856587 C98.46496686 342.11323255 86.29396253 342.12803039 74.12282753 342.16831017 C63.75893978 342.20256691 53.39527837 342.21656707 43.03133724 342.20388602 C37.74217079 342.19804913 32.45348327 342.2019959 27.16438866 342.23205566 C22.32249892 342.25934961 17.48142995 342.25897119 12.63952252 342.23654521 C10.88778698 342.23331367 9.13599717 342.24024074 7.38435218 342.25834244 C-8.7617417 342.41508498 -8.7617417 342.41508498 -14.19936877 337.16251868 C-19.42011911 330.80537687 -18.99124639 324.7307567 -18.9563446 316.80112457 C-18.96243571 315.50715645 -18.96852681 314.21318833 -18.97480249 312.88000906 C-18.9911947 309.29464598 -18.98888562 305.7095029 -18.98342752 302.12411547 C-18.98075643 298.2548837 -18.99529061 294.38571045 -19.00752258 290.51650238 C-19.02857539 282.93864149 -19.03311752 275.36085712 -19.0313347 267.78297044 C-19.030027 261.62327521 -19.03383159 255.46360385 -19.04125977 249.30391312 C-19.04335896 247.52952524 -19.04545656 245.75513737 -19.04755259 243.98074949 C-19.04859611 243.09758229 -19.04963964 242.21441509 -19.05071479 241.30448525 C-19.06961653 224.6019801 -19.06856716 207.89951887 -19.06174546 191.19700746 C-19.05616996 175.9190892 -19.07699585 160.64133862 -19.11010593 145.36345954 C-19.14384368 129.67412434 -19.15901117 113.98486946 -19.1543889 98.2954973 C-19.15214431 89.48790987 -19.15738592 80.68047743 -19.18228149 71.87292099 C-19.20329571 64.37469481 -19.20688549 56.87670861 -19.1879819 49.37847258 C-19.17882472 45.55357577 -19.17767994 41.72912639 -19.19833755 37.90426445 C-19.22049553 33.75568506 -19.2038293 29.60815984 -19.18339539 25.45957184 C-19.19591323 24.25353668 -19.20843108 23.04750152 -19.22132826 21.80491984 C-19.14891822 14.95689562 -18.52717985 9.5503549 -13.56193542 4.50336456 C-9.07677919 0.88233294 -5.63734493 -0.07704295 0 0 Z M-10.56193542 11.50336456 C-18.61316031 27.60581434 -11.56193542 47.50027841 -11.56193542 65.50336456 C135.94806458 65.50336456 283.45806458 65.50336456 435.43806458 65.50336456 C438.72067595 35.40391854 438.72067595 35.40391854 431.43806458 8.50336456 C427.99701452 5.90385916 424.41764523 6.24957153 420.21592903 6.24330235 C419.4837338 6.23949667 418.75153857 6.235691 417.99715561 6.23177001 C415.53037635 6.22141919 413.06382571 6.22536678 410.59703064 6.2292099 C408.81593852 6.2247594 407.03484839 6.21944598 405.25376117 6.21334118 C400.34888718 6.19912841 395.44407645 6.1974985 390.53918481 6.19793808 C385.25346067 6.19629278 379.96776282 6.18323174 374.68205261 6.1717453 C363.12027225 6.148875 351.55851022 6.14097269 339.9967103 6.13591886 C332.78099067 6.13266458 325.56527639 6.12614378 318.34955978 6.11891747 C298.38070662 6.09934988 278.41185844 6.08294627 258.44299507 6.08004093 C257.16463687 6.07985336 255.88627866 6.07966579 254.56918233 6.07947254 C251.97752245 6.07910628 249.38586258 6.07874258 246.7942027 6.07838143 C245.50765856 6.07819862 244.22111443 6.0780158 242.89558411 6.07782745 C241.60747439 6.0776469 240.31936468 6.07746636 238.99222134 6.07728034 C218.10960233 6.07373697 197.22708633 6.04670514 176.34450306 6.00932956 C154.91704678 5.97128484 133.48964166 5.95188374 112.06215084 5.95158142 C100.02632325 5.95099603 87.99061857 5.94245136 75.95482254 5.91358376 C65.70838962 5.88912129 55.46212444 5.88175229 45.21567024 5.89683128 C39.98553818 5.9040209 34.75573769 5.90305451 29.5256424 5.88042068 C24.74009606 5.85990861 19.95513787 5.862358 15.16959845 5.88329553 C13.43610558 5.88680534 11.70257095 5.88181771 9.96913292 5.86759109 C7.6159983 5.84951938 5.26495259 5.86215343 2.9118824 5.8825388 C1.60401555 5.88172434 0.2961487 5.88090988 -1.05135047 5.88007075 C-5.66060243 6.69842959 -7.27536794 8.22843194 -10.56193542 11.50336456 Z M-11.56193542 72.50336456 C-11.56193542 154.01336456 -11.56193542 235.52336456 -11.56193542 319.50336456 C67.68318123 319.53248492 67.68318123 319.53248492 146.92829895 319.55219269 C156.91812739 319.55402609 166.90795583 319.55590038 176.89778424 319.55789056 C178.25287994 319.5581604 179.60797564 319.55842877 180.96307134 319.55869565 C202.58513187 319.56296628 224.20718979 319.57047288 245.82924874 319.57966178 C268.67125822 319.58935156 291.51326655 319.59535818 314.35527807 319.59745306 C328.04709355 319.59882861 341.73890156 319.60318096 355.43071473 319.61128103 C364.80590736 319.61654654 374.18109609 319.6181693 383.55629008 319.61686594 C388.97400698 319.61622225 394.39171076 319.6172435 399.80942535 319.62257004 C404.76059954 319.62740265 409.7117517 319.62770413 414.66292686 319.62426346 C416.46239484 319.62383763 418.26186414 319.62513452 420.06132948 319.62824775 C422.49080382 319.63220947 424.9201966 319.63012938 427.34966946 319.62641239 C428.06258051 319.62903941 428.77549156 319.63166642 429.51000598 319.63437304 C432.7539948 319.89946164 432.7539948 319.89946164 435.43806458 318.50336456 C435.53614055 315.34310159 435.56796903 312.20466008 435.55831909 309.04399872 C435.55917511 308.04102753 435.56003113 307.03805634 435.56091309 306.00469208 C435.56257904 302.60571308 435.55702728 299.20678247 435.55158997 295.80780792 C435.55128389 293.34465823 435.55141668 290.88150845 435.55195522 288.4183588 C435.5521588 282.46975291 435.54785862 276.52116599 435.54145389 270.57256484 C435.53427052 263.69569632 435.53346006 256.81883539 435.53266907 249.9419632 C435.52741285 231.77492793 435.51345183 213.60789602 435.50056458 195.44086456 C435.47993958 154.87148956 435.45931458 114.30211456 435.43806458 72.50336456 C287.92806458 72.50336456 140.41806458 72.50336456 -11.56193542 72.50336456 Z " fill="#392E70" transform="translate(663.5619354248047,591.4966354370117)"/>
<path d="M0 0 C3.13541509 2.17499829 5.6579122 4.8678465 8.27734375 7.62890625 C9.04752335 8.41136215 9.81770294 9.19381805 10.61122131 9.99998474 C13.07032934 12.50483159 15.50428116 15.03252045 17.9375 17.5625 C20.3720728 20.06223932 22.81158599 22.55704235 25.25306702 25.05003357 C26.76867293 26.60104978 28.279434 28.15682083 29.78440857 29.71815491 C33.75451006 33.81727918 37.82836599 37.67591383 42.15705872 41.39378357 C44.79881555 43.69620811 47.26233756 46.13260234 49.7421875 48.609375 C50.23663361 49.10286438 50.73107971 49.59635376 51.24050903 50.10479736 C52.26833653 51.13195303 53.29493755 52.16033743 54.3203125 53.18994141 C55.8894845 54.76453454 57.46401231 56.33363278 59.0390625 57.90234375 C60.04459211 58.9085332 61.049812 59.91503229 62.0546875 60.921875 C62.95687012 61.82518555 63.85905273 62.72849609 64.78857422 63.65917969 C68.31846587 67.3956117 69.23601346 69.64739735 69.4609375 74.76953125 C68.23190053 80.7168203 63.04769413 85.2368203 58.88623047 89.35668945 C58.28413757 89.96068069 57.68204468 90.56467194 57.06170654 91.18696594 C55.08504166 93.16731352 53.1013086 95.14040642 51.1171875 97.11328125 C49.73727546 98.49200038 48.35773376 99.87109026 46.97854614 101.25053406 C44.09506506 104.13245482 41.20826634 107.01099545 38.31884766 109.88696289 C34.61017746 113.57858807 30.90818015 117.27681791 27.20840263 120.9773531 C24.36405791 123.82142642 21.51711866 126.66289024 18.66928482 129.50346947 C17.30269471 130.86687266 15.9367136 132.23088655 14.57134628 133.5955143 C12.66839557 135.49630488 10.76219385 137.39377099 8.85498047 139.2902832 C8.28870941 139.85700745 7.72243835 140.42373169 7.13900757 141.00762939 C3.73293669 144.38569113 2.20097729 145.85505447 -2.625 146.4375 C-10.21724243 146.32766647 -15.48925195 139.72925272 -20.5546875 134.7109375 C-22.73102538 132.13462401 -23.85650882 130.04696647 -24.31713867 126.68603516 C-23.87487594 122.94025023 -22.33535471 121.63252924 -19.73046875 118.921875 C-19.01167793 118.16677643 -19.01167793 118.16677643 -18.27836609 117.39642334 C-16.53560662 115.58061148 -14.77009824 113.78917125 -13 112 C-12.28781311 111.27707764 -11.57562622 110.55415527 -10.84185791 109.80932617 C-5.03189415 103.92282874 0.82473844 98.08383256 6.6875 92.25 C8.46833324 90.47419324 10.24893401 88.69815334 12.02929688 86.921875 C16.35018985 82.61189331 20.67393735 78.30479239 25 74 C20.10667731 68.06906309 14.76969026 62.73363627 9.26171875 57.375 C7.37099376 55.51637969 5.48102876 53.65701053 3.59179688 51.796875 C0.632583 48.88558655 -2.33104234 45.97917671 -5.30981445 43.08789062 C-7.26432064 41.19012362 -9.21058207 39.28459639 -11.14823914 37.36962891 C-12.96600968 35.57339851 -14.79524482 33.78867865 -16.63703918 32.01708984 C-23.42672645 25.25782759 -23.42672645 25.25782759 -24.14916992 21.07421875 C-23.75795826 13.01180093 -15.53370606 7.13646171 -10 2 C-6.13829722 -0.57446852 -4.58844953 -0.72101282 0 0 Z " fill="#FDFDFD" transform="translate(751,702)"/>
<path d="M0 0 C147.51 0 295.02 0 447 0 C445 6 445 6 442.34176445 8.34336513 C438.4353937 10.279896 435.88076307 10.5021926 431.5317688 10.50615788 C430.79726588 10.51227123 430.06276296 10.51838459 429.30600238 10.52468321 C426.8431609 10.54029191 424.38130295 10.52741417 421.91845703 10.5146637 C420.13563525 10.5199885 418.35281795 10.5270538 416.57000923 10.53571075 C411.6695729 10.55437359 406.76943802 10.54802057 401.86898899 10.53755772 C396.58464978 10.5305761 391.30037315 10.5465557 386.01605225 10.55955505 C375.6635279 10.58121725 365.31111339 10.58106253 354.95857382 10.57292951 C346.54628531 10.56663456 338.13402888 10.5677619 329.72174072 10.57420158 C327.92712455 10.57555407 327.92712455 10.57555407 326.09625351 10.57693387 C323.6659131 10.57878503 321.23557269 10.58064759 318.80523229 10.58252143 C296.00570139 10.59910747 273.20623233 10.59037366 250.40670514 10.57353585 C229.53713843 10.55883633 208.66771565 10.57346948 187.79816747 10.60230602 C166.37967777 10.63168115 144.96125455 10.64267791 123.54274559 10.63312382 C121.12125016 10.63210124 118.69975473 10.63110663 116.27825928 10.6301403 C114.49103712 10.62942572 114.49103712 10.62942572 112.66770947 10.6286967 C104.26365656 10.62653018 95.85966642 10.63634922 87.45562744 10.65091133 C77.21654775 10.66840532 66.97765165 10.66835939 56.73857927 10.64555968 C51.51249411 10.63439117 46.28673277 10.63131405 41.06066132 10.64986038 C36.27887821 10.66661198 31.49770267 10.66038652 26.71595931 10.63564359 C24.98387917 10.63074239 23.25175051 10.63432449 21.51971078 10.64713103 C19.16848118 10.66326459 16.81936487 10.64871561 14.4682312 10.62641239 C13.1614485 10.6261427 11.85466579 10.62587301 10.50828362 10.62559515 C5.81859671 9.78933283 4.24527386 8.46733231 1 5 C0.67 3.35 0.34 1.7 0 0 Z " fill="#F2F2F6" transform="translate(652,917)"/>
<path d="M0 0 C0.87022797 -0.00671722 1.74045593 -0.01343445 2.63705444 -0.02035522 C5.51867354 -0.03937916 8.40006026 -0.04326167 11.28173828 -0.04541016 C13.28329566 -0.05183518 15.28485209 -0.05856332 17.28640747 -0.06558228 C21.48458026 -0.07756615 25.68267069 -0.08126197 29.88085938 -0.08007812 C35.2601913 -0.07987491 40.63899508 -0.10717498 46.01820183 -0.14162254 C50.15319239 -0.16386149 54.28805527 -0.16791658 58.42309952 -0.16685867 C60.40623927 -0.16921924 62.3893823 -0.17806835 64.37246323 -0.19352341 C67.14712227 -0.21312192 69.92063496 -0.2073695 72.6953125 -0.1953125 C73.51418945 -0.20655151 74.33306641 -0.21779053 75.17675781 -0.22937012 C79.14220729 -0.18558813 81.03441822 0.00811766 84.46340942 2.19589233 C88.56001897 6.45727768 87.69688473 10.97328875 87.72705078 16.60302734 C87.74767578 17.55371094 87.76830078 18.50439453 87.78955078 19.48388672 C87.83914466 28.35499222 87.83914466 28.35499222 84.47705078 32.29052734 C80.63739966 34.85029476 77.49703149 34.5787397 73.04589844 34.56518555 C72.18542404 34.57029648 71.32494965 34.57540741 70.43840027 34.58067322 C67.58923416 34.59459177 64.74030938 34.59361058 61.89111328 34.59130859 C59.91197621 34.59519464 57.93283998 34.59952912 55.95370483 34.60429382 C51.80260517 34.61176116 47.65159054 34.61146129 43.50048828 34.60620117 C38.18177288 34.60040969 32.86340607 34.61732734 27.54474831 34.64054585 C23.45608485 34.6552817 19.36750534 34.65615502 15.27882004 34.65303612 C13.31802048 34.65354953 11.35721625 34.658791 9.39644241 34.66884804 C6.65306249 34.68119044 3.91036132 34.67443366 1.16699219 34.6628418 C0.35746597 34.67048553 -0.45206024 34.67812927 -1.28611755 34.68600464 C-5.87605177 34.6431575 -8.87443187 34.14726903 -12.52294922 31.29052734 C-15.4256307 27.026067 -14.85329082 22.32369808 -14.83544922 17.35302734 C-14.8515625 16.4590625 -14.86767578 15.56509766 -14.88427734 14.64404297 C-14.88792239 9.7341676 -14.80718245 6.22083924 -11.52294922 2.29052734 C-7.66505325 -0.2814033 -4.47424794 -0.00492795 0 0 Z " fill="#FBFBFC" transform="translate(828.52294921875,844.70947265625)"/>
<path d="M0 0 C3.13541509 2.17499829 5.6579122 4.8678465 8.27734375 7.62890625 C9.04752335 8.41136215 9.81770294 9.19381805 10.61122131 9.99998474 C13.07032934 12.50483159 15.50428116 15.03252045 17.9375 17.5625 C20.3720728 20.06223932 22.81158599 22.55704235 25.25306702 25.05003357 C26.76867293 26.60104978 28.279434 28.15682083 29.78440857 29.71815491 C33.75451006 33.81727918 37.82836599 37.67591383 42.15705872 41.39378357 C44.79881555 43.69620811 47.26233756 46.13260234 49.7421875 48.609375 C50.23663361 49.10286438 50.73107971 49.59635376 51.24050903 50.10479736 C52.26833653 51.13195303 53.29493755 52.16033743 54.3203125 53.18994141 C55.8894845 54.76453454 57.46401231 56.33363278 59.0390625 57.90234375 C60.04459211 58.9085332 61.049812 59.91503229 62.0546875 60.921875 C62.95687012 61.82518555 63.85905273 62.72849609 64.78857422 63.65917969 C68.31846587 67.3956117 69.23601346 69.64739735 69.4609375 74.76953125 C68.23190053 80.7168203 63.04769413 85.2368203 58.88623047 89.35668945 C58.28413757 89.96068069 57.68204468 90.56467194 57.06170654 91.18696594 C55.08504166 93.16731352 53.1013086 95.14040642 51.1171875 97.11328125 C49.73727546 98.49200038 48.35773376 99.87109026 46.97854614 101.25053406 C44.09506506 104.13245482 41.20826634 107.01099545 38.31884766 109.88696289 C34.61017746 113.57858807 30.90818015 117.27681791 27.20840263 120.9773531 C24.36405791 123.82142642 21.51711866 126.66289024 18.66928482 129.50346947 C17.30269471 130.86687266 15.9367136 132.23088655 14.57134628 133.5955143 C12.66839557 135.49630488 10.76219385 137.39377099 8.85498047 139.2902832 C8.28870941 139.85700745 7.72243835 140.42373169 7.13900757 141.00762939 C3.73293669 144.38569113 2.20097729 145.85505447 -2.625 146.4375 C-10.21724243 146.32766647 -15.48925195 139.72925272 -20.5546875 134.7109375 C-22.73102538 132.13462401 -23.85650882 130.04696647 -24.31713867 126.68603516 C-23.87487594 122.94025023 -22.33535471 121.63252924 -19.73046875 118.921875 C-19.01167793 118.16677643 -19.01167793 118.16677643 -18.27836609 117.39642334 C-16.53560662 115.58061148 -14.77009824 113.78917125 -13 112 C-12.28781311 111.27707764 -11.57562622 110.55415527 -10.84185791 109.80932617 C-5.03189415 103.92282874 0.82473844 98.08383256 6.6875 92.25 C8.46833324 90.47419324 10.24893401 88.69815334 12.02929688 86.921875 C16.35018985 82.61189331 20.67393735 78.30479239 25 74 C20.10667731 68.06906309 14.76969026 62.73363627 9.26171875 57.375 C7.37099376 55.51637969 5.48102876 53.65701053 3.59179688 51.796875 C0.632583 48.88558655 -2.33104234 45.97917671 -5.30981445 43.08789062 C-7.26432064 41.19012362 -9.21058207 39.28459639 -11.14823914 37.36962891 C-12.96600968 35.57339851 -14.79524482 33.78867865 -16.63703918 32.01708984 C-23.42672645 25.25782759 -23.42672645 25.25782759 -24.14916992 21.07421875 C-23.75795826 13.01180093 -15.53370606 7.13646171 -10 2 C-6.13829722 -0.57446852 -4.58844953 -0.72101282 0 0 Z M-9.4375 10.6875 C-10.42621094 11.55761719 -11.41492188 12.42773438 -12.43359375 13.32421875 C-14.94475459 15.94240014 -15.79925089 17.66380991 -17 21 C-16.37359619 21.61530075 -15.74719238 22.2306015 -15.10180664 22.86454773 C-9.20287011 28.66332941 -3.31601234 34.47404601 2.55757141 40.29851055 C5.57773378 43.29257127 8.60237299 46.28180107 11.63769531 49.26049805 C14.56639866 52.13490338 17.48274313 55.02132688 20.39089966 57.91651344 C21.50293953 59.01930958 22.61937356 60.11769277 23.74020386 61.21155357 C25.30869398 62.74378379 26.86086702 64.29092053 28.41015625 65.8425293 C29.74252319 67.15824165 29.74252319 67.15824165 31.10180664 68.50053406 C33 71 33 71 33.57373047 73.5 C32.75619259 77.06237781 31.00173749 78.59828423 28.41015625 81.1574707 C27.92247772 81.64587936 27.43479919 82.13428802 26.93234253 82.63749695 C25.32063117 84.24573036 23.69194969 85.8355395 22.0625 87.42578125 C20.94040107 88.53855282 19.81940247 89.65243495 18.69946289 90.76737976 C15.75117989 93.69658707 12.78819111 96.61046918 9.82189941 99.52142334 C6.79672861 102.49541453 3.78569157 105.48363973 0.7734375 108.47070312 C-5.13729246 114.3278353 -11.0636321 120.1688547 -17 126 C-13.87550915 132.45364268 -9.86428691 136.05288381 -4 140 C0.18912502 138.353662 3.02211766 135.2806068 6.14550781 132.16088867 C6.75081329 131.56390671 7.35611877 130.96692474 7.97976685 130.35185242 C9.97635933 128.37933127 11.9652319 126.3992545 13.953125 124.41796875 C15.3373867 123.04267286 16.72172616 121.66745523 18.10614014 120.29231262 C21.00483202 117.41010361 23.89910676 114.52353533 26.79101562 111.63452148 C30.50065296 107.93027872 34.22618632 104.24247402 37.95586014 100.55842113 C40.81926312 97.72472473 43.67138259 94.87987664 46.52046967 92.03179359 C47.88955017 90.66692514 49.26276136 89.30618734 50.64011383 87.94966698 C52.56276853 86.0538025 54.46905842 84.1428475 56.37207031 82.22729492 C56.94553192 81.6686676 57.51899353 81.11004028 58.10983276 80.53448486 C60.28413335 78.3190344 61.84623659 76.52710825 62.72367859 73.51919556 C61.59711572 69.59752064 58.89650231 67.23595085 56.04907227 64.46557617 C55.10050858 63.51350784 55.10050858 63.51350784 54.13278198 62.54220581 C52.03911145 60.44692005 49.92816383 58.37001133 47.81640625 56.29296875 C46.36046949 54.84381923 44.90556184 53.39363509 43.4516449 51.94245911 C40.40316274 48.90465814 37.34684777 45.87505689 34.28393555 42.85180664 C30.34794783 38.96677682 26.42501226 35.06890559 22.50697422 31.16578197 C18.78068528 27.45424765 15.04917192 23.7479879 11.31640625 20.04296875 C10.59933565 19.33080893 9.88226505 18.6186491 9.14346504 17.88490868 C7.12523982 15.88287745 5.10346862 13.88450775 3.08032227 11.88745117 C2.47611954 11.28750839 1.87191681 10.68756561 1.24940491 10.06944275 C-4.01641212 4.8862245 -4.30485507 6.08964145 -9.4375 10.6875 Z " fill="#403575" transform="translate(751,702)"/>
<path d="M0 0 C0.87022797 -0.00671722 1.74045593 -0.01343445 2.63705444 -0.02035522 C5.51867354 -0.03937916 8.40006026 -0.04326167 11.28173828 -0.04541016 C13.28329566 -0.05183518 15.28485209 -0.05856332 17.28640747 -0.06558228 C21.48458026 -0.07756615 25.68267069 -0.08126197 29.88085938 -0.08007812 C35.2601913 -0.07987491 40.63899508 -0.10717498 46.01820183 -0.14162254 C50.15319239 -0.16386149 54.28805527 -0.16791658 58.42309952 -0.16685867 C60.40623927 -0.16921924 62.3893823 -0.17806835 64.37246323 -0.19352341 C67.14712227 -0.21312192 69.92063496 -0.2073695 72.6953125 -0.1953125 C73.51418945 -0.20655151 74.33306641 -0.21779053 75.17675781 -0.22937012 C79.14220729 -0.18558813 81.03441822 0.00811766 84.46340942 2.19589233 C88.56001897 6.45727768 87.69688473 10.97328875 87.72705078 16.60302734 C87.74767578 17.55371094 87.76830078 18.50439453 87.78955078 19.48388672 C87.83914466 28.35499222 87.83914466 28.35499222 84.47705078 32.29052734 C80.63739966 34.85029476 77.49703149 34.5787397 73.04589844 34.56518555 C72.18542404 34.57029648 71.32494965 34.57540741 70.43840027 34.58067322 C67.58923416 34.59459177 64.74030938 34.59361058 61.89111328 34.59130859 C59.91197621 34.59519464 57.93283998 34.59952912 55.95370483 34.60429382 C51.80260517 34.61176116 47.65159054 34.61146129 43.50048828 34.60620117 C38.18177288 34.60040969 32.86340607 34.61732734 27.54474831 34.64054585 C23.45608485 34.6552817 19.36750534 34.65615502 15.27882004 34.65303612 C13.31802048 34.65354953 11.35721625 34.658791 9.39644241 34.66884804 C6.65306249 34.68119044 3.91036132 34.67443366 1.16699219 34.6628418 C0.35746597 34.67048553 -0.45206024 34.67812927 -1.28611755 34.68600464 C-5.87605177 34.6431575 -8.87443187 34.14726903 -12.52294922 31.29052734 C-15.4256307 27.026067 -14.85329082 22.32369808 -14.83544922 17.35302734 C-14.8515625 16.4590625 -14.86767578 15.56509766 -14.88427734 14.64404297 C-14.88792239 9.7341676 -14.80718245 6.22083924 -11.52294922 2.29052734 C-7.66505325 -0.2814033 -4.47424794 -0.00492795 0 0 Z M-8.52294922 9.29052734 C-8.72188721 11.8152845 -8.80142357 14.20567484 -8.77294922 16.72802734 C-8.78068359 17.40929687 -8.78841797 18.09056641 -8.79638672 18.79248047 C-8.78184356 22.50462177 -8.6323534 24.12642107 -6.52294922 27.29052734 C-3.75271349 27.58740576 -1.20562357 27.68953817 1.56689453 27.6628418 C2.40278107 27.66649246 3.2386676 27.67014313 4.09988403 27.67390442 C6.87164427 27.68203135 9.64282381 27.66838221 12.41455078 27.65380859 C14.33504231 27.65329024 16.25553438 27.65380697 18.17602539 27.65531921 C22.20450747 27.65522939 26.23278982 27.64478019 30.26123047 27.62670898 C35.43336881 27.60402149 40.60521512 27.60347667 45.77738953 27.61022663 C49.74412649 27.61356299 53.71079648 27.60694281 57.67752075 27.5970974 C59.58496755 27.59323935 61.49242179 27.59209967 63.39987183 27.59368324 C66.06246212 27.59405278 68.72467348 27.5814653 71.38720703 27.56518555 C72.1810379 27.56766296 72.97486877 27.57014038 73.79275513 27.57269287 C78.09885939 27.68967774 78.09885939 27.68967774 81.47705078 25.29052734 C81.64911188 22.5842104 81.70944095 19.99338794 81.66455078 17.29052734 C81.66390625 16.55318359 81.66326172 15.81583984 81.66259766 15.05615234 C81.70496782 11.04260444 81.70496782 11.04260444 80.47705078 7.29052734 C69.16821843 7.24425836 57.85940847 7.20868588 46.55050087 7.186903 C41.2997466 7.17645017 36.04905693 7.16226371 30.79833984 7.13964844 C25.73443336 7.1179734 20.67058914 7.10597002 15.60663986 7.10077286 C13.67126866 7.09706748 11.73590099 7.08983216 9.80055618 7.07906723 C7.09710481 7.0646232 4.39391322 7.06254641 1.69042969 7.06347656 C0.48094414 7.05269073 0.48094414 7.05269073 -0.75297546 7.04168701 C-5.10430275 6.88708122 -5.10430275 6.88708122 -8.52294922 9.29052734 Z " fill="#3F3474" transform="translate(828.52294921875,844.70947265625)"/>
<path d="M0 0 C4.71362305 1.9901964 7.72172827 5.44345654 10 10 C10.50890436 16.10685229 10.0775461 19.12959772 6 24 C1.99872457 27.51627235 -1.59548432 28.35980905 -6.9375 28.28125 C-11.30494274 27.68568963 -14.01306375 25.08562988 -16.875 21.9375 C-18.64882705 17.30584049 -18.77360971 12.88520205 -18 8 C-14.25192172 0.47409679 -7.6909234 -0.88211308 0 0 Z " fill="#3E3373" transform="translate(725,614)"/>
<path d="M0 0 C4.65552557 1.668962 7.62685856 3.6188158 10 8 C10.79448427 13.31007343 10.64735479 17.60569737 8.375 22.5 C4.7053959 26.36274116 1.30510501 28.12364837 -4 28.4375 C-8.23419303 28.2674846 -10.74108092 26.72839737 -14 24 C-16.89626035 20.70425546 -17.89660298 18.09600845 -18.3125 13.6875 C-17.85157349 8.24856718 -15.41853721 5.54012611 -11.8125 1.625 C-7.82478062 -0.67901564 -4.50102419 -0.65209184 0 0 Z " fill="#3D3273" transform="translate(688,614)"/>
<path d="M0 0 C3.67641448 1.29342307 6.34013912 3.25499578 8.9375 6.1875 C10.68849618 10.82248989 10.91860719 15.30126702 9.30859375 20.03125 C7.76898466 23.0718169 6.06424272 24.95368548 3.3125 26.9375 C-0.95975841 28.30784704 -4.57041977 28.95359019 -9 28 C-12.71219401 25.89079886 -15.23689567 23.26078107 -17.4375 19.625 C-18.22994096 15.92694217 -18.91385441 12.69603339 -18 9 C-13.08570481 1.58364851 -8.83426446 -1.04102625 0 0 Z " fill="#3D3273" transform="translate(761,614)"/>
<path d="M0 0 C1.94140625 0.3828125 1.94140625 0.3828125 4.44140625 2.0078125 C6.39703107 5.10421846 6.54165102 6.78134385 5.94140625 10.3828125 C4.37890625 12.7578125 4.37890625 12.7578125 1.94140625 14.3828125 C-2.03346992 14.95065195 -4.12348596 15.00621769 -7.49609375 12.7578125 C-9.51791688 9.68464135 -9.58614892 8.00033369 -9.05859375 4.3828125 C-7.2132127 0.00003251 -4.58703454 -0.25342732 0 0 Z " fill="#F8F8FA" transform="translate(686.05859375,620.6171875)"/>
<path d="M0 0 C2.6923481 2.18753283 2.93936827 3.58423955 3.4375 7 C3 10 3 10 1.4375 12.375 C-1.95870843 14.63913895 -4.00099302 14.64269755 -8 14 C-10.69500656 11.58140437 -11.80636871 9.99236035 -12.5 6.4375 C-11.06550643 -0.55565616 -6.06105588 -0.76965789 0 0 Z " fill="#F9F9FB" transform="translate(725,621)"/>
<path d="M0 0 C1.9375 1.0625 1.9375 1.0625 3 3 C3.3931463 6.60384106 3.39343329 9.09741776 1.9375 12.4375 C0 14 0 14 -3.4375 14.5 C-7 14 -7 14 -9.4375 12.375 C-11.47161336 9.28314769 -11.60605429 7.63632575 -11 4 C-8.05323917 -0.47907646 -5.13567732 -0.65363166 0 0 Z " fill="#F9F9FB" transform="translate(761,621)"/>
</svg>
